<svg width="40" height="40" viewBox="0 0 40 40" fill="none" xmlns="http://www.w3.org/2000/svg">
<g clip-path="url(#clip0_1_1034)">
<path d="M5.85938 40H34.1406C37.3715 40 40 37.3715 40 34.1406V5.85938C40 2.62848 37.3715 0 34.1406 0H5.85938C2.62848 0 0 2.62848 0 5.85938V34.1406C0 37.3715 2.62848 40 5.85938 40ZM2.34375 5.85938C2.34375 3.9209 3.9209 2.34375 5.85938 2.34375H34.1406C36.0791 2.34375 37.6562 3.9209 37.6562 5.85938V34.1406C37.6562 36.0791 36.0791 37.6562 34.1406 37.6562H5.85938C3.9209 37.6562 2.34375 36.0791 2.34375 34.1406V5.85938Z" fill="#ADBC00"/>
<path d="M20 30.5469C25.8154 30.5469 30.5469 25.8154 30.5469 20C30.5469 14.1846 25.8154 9.45312 20 9.45312C14.1846 9.45312 9.45312 14.1846 9.45312 20C9.45312 25.8154 14.1846 30.5469 20 30.5469ZM20 11.7969C24.5233 11.7969 28.2031 15.4767 28.2031 20C28.2031 24.5233 24.5233 28.2031 20 28.2031C15.4767 28.2031 11.7969 24.5233 11.7969 20C11.7969 15.4767 15.4767 11.7969 20 11.7969Z" fill="#ADBC00"/>
<path d="M31.7188 11.7969C33.6572 11.7969 35.2344 10.2197 35.2344 8.28125C35.2344 6.34277 33.6572 4.76562 31.7188 4.76562C29.7803 4.76562 28.2031 6.34277 28.2031 8.28125C28.2031 10.2197 29.7803 11.7969 31.7188 11.7969ZM31.7188 7.10938C32.3648 7.10938 32.8906 7.63519 32.8906 8.28125C32.8906 8.92731 32.3648 9.45312 31.7188 9.45312C31.0727 9.45312 30.5469 8.92731 30.5469 8.28125C30.5469 7.63519 31.0727 7.10938 31.7188 7.10938Z" fill="#ADBC00"/>
</g>
<defs>
<clipPath id="clip0_1_1034">
<rect width="40" height="40" fill="white"/>
</clipPath>
</defs>
</svg>
